<?xml version="1.0" encoding="UTF-8"?><svg xmlns="http://www.w3.org/2000/svg" width="160.5" height="104.25" viewBox="0 0 856 556" role="img"><g transform="translate(0,0)"><title>windows</title><rect width="256" height="256" rx="60" fill="#242938"/><g transform="translate(42,42)"><g transform="translate(-28.6667,-28.6667) scale(7.1667)" color="#0078D4"><path fill="currentColor" d="M5 5 H15.4 V15.4 H5 Z M16.6 5 H27 V15.4 H16.6 Z M5 16.6 H15.4 V27 H5 Z M16.6 16.6 H27 V27 H16.6 Z"/></g></g></g><g transform="translate(300,0)"><title>powershell</title><rect width="256" height="256" rx="60" fill="#242938"/><g transform="translate(42,42)"><text x="86" y="86" dy="0.35em" text-anchor="middle" font-family="ui-sans-serif,system-ui,-apple-system,'Segoe UI',Helvetica,Arial,sans-serif" font-weight="800" font-size="106.64" letter-spacing="-0.02em" fill="#5391FE">&gt;_</text></g></g><g transform="translate(600,0)"><title>X</title><rect width="256" height="256" rx="60" fill="#242938"/><g transform="translate(42,42)"><path transform="scale(7.1667)" fill="#FFFFFF" d="M14.234 10.162 22.977 0h-2.072l-7.591 8.824L7.251 0H.258l9.168 13.343L.258 24H2.33l8.016-9.318L16.749 24h6.993zm-2.837 3.299-.929-1.329L3.076 1.56h3.182l5.965 8.532.929 1.329 7.754 11.09h-3.182z"/></g></g><g transform="translate(0,300)"><title>Notion</title><rect width="256" height="256" rx="60" fill="#242938"/><g transform="translate(42,42)"><path transform="scale(7.1667)" fill="#FFFFFF" d="M4.459 4.208c.746.606 1.026.56 2.428.466l13.215-.793c.28 0 .047-.28-.046-.326L17.86 1.968c-.42-.326-.981-.7-2.055-.607L3.01 2.295c-.466.046-.56.28-.374.466zm.793 3.08v13.904c0 .747.373 1.027 1.214.98l14.523-.84c.841-.046.935-.56.935-1.167V6.354c0-.606-.233-.933-.748-.887l-15.177.887c-.56.047-.747.327-.747.933zm14.337.745c.093.42 0 .84-.42.888l-.7.14v10.264c-.608.327-1.168.514-1.635.514-.748 0-.935-.234-1.495-.933l-4.577-7.186v6.952L12.21 19s0 .84-1.168.84l-3.222.186c-.093-.186 0-.653.327-.746l.84-.233V9.854L7.822 9.76c-.094-.42.14-1.026.793-1.073l3.456-.233 4.764 7.279v-6.44l-1.215-.139c-.093-.514.28-.887.747-.933zM1.936 1.035l13.31-.98c1.634-.14 2.055-.047 3.082.7l4.249 2.986c.7.513.934.653.934 1.213v16.378c0 1.026-.373 1.634-1.68 1.726l-15.458.934c-.98.047-1.448-.093-1.962-.747l-3.129-4.06c-.56-.747-.793-1.306-.793-1.96V2.667c0-.839.374-1.54 1.447-1.632z"/></g></g><g transform="translate(300,300)"><title>GNU Bash</title><rect width="256" height="256" rx="60" fill="#242938"/><g transform="translate(42,42)"><path transform="scale(7.1667)" fill="#4EAA25" d="M21.038,4.9l-7.577-4.498C13.009,0.134,12.505,0,12,0c-0.505,0-1.009,0.134-1.462,0.403L2.961,4.9 C2.057,5.437,1.5,6.429,1.5,7.503v8.995c0,1.073,0.557,2.066,1.462,2.603l7.577,4.497C10.991,23.866,11.495,24,12,24 c0.505,0,1.009-0.134,1.461-0.402l7.577-4.497c0.904-0.537,1.462-1.529,1.462-2.603V7.503C22.5,6.429,21.943,5.437,21.038,4.9z M15.17,18.946l0.013,0.646c0.001,0.078-0.05,0.167-0.111,0.198l-0.383,0.22c-0.061,0.031-0.111-0.007-0.112-0.085L14.57,19.29 c-0.328,0.136-0.66,0.169-0.872,0.084c-0.04-0.016-0.057-0.075-0.041-0.142l0.139-0.584c0.011-0.046,0.036-0.092,0.069-0.121 c0.012-0.011,0.024-0.02,0.036-0.026c0.022-0.011,0.043-0.014,0.062-0.006c0.229,0.077,0.521,0.041,0.802-0.101 c0.357-0.181,0.596-0.545,0.592-0.907c-0.003-0.328-0.181-0.465-0.613-0.468c-0.55,0.001-1.064-0.107-1.072-0.917 c-0.007-0.667,0.34-1.361,0.889-1.8l-0.007-0.652c-0.001-0.08,0.048-0.168,0.111-0.2l0.37-0.236 c0.061-0.031,0.111,0.007,0.112,0.087l0.006,0.653c0.273-0.109,0.511-0.138,0.726-0.088c0.047,0.012,0.067,0.076,0.048,0.151 l-0.144,0.578c-0.011,0.044-0.036,0.088-0.065,0.116c-0.012,0.012-0.025,0.021-0.038,0.028c-0.019,0.01-0.038,0.013-0.057,0.009 c-0.098-0.022-0.332-0.073-0.699,0.113c-0.385,0.195-0.52,0.53-0.517,0.778c0.003,0.297,0.155,0.387,0.681,0.396 c0.7,0.012,1.003,0.318,1.01,1.023C16.105,17.747,15.736,18.491,15.17,18.946z M19.143,17.859c0,0.06-0.008,0.116-0.058,0.145 l-1.916,1.164c-0.05,0.029-0.09,0.004-0.09-0.056v-0.494c0-0.06,0.037-0.093,0.087-0.122l1.887-1.129 c0.05-0.029,0.09-0.004,0.09,0.056V17.859z M20.459,6.797l-7.168,4.427c-0.894,0.523-1.553,1.109-1.553,2.187v8.833 c0,0.645,0.26,1.063,0.66,1.184c-0.131,0.023-0.264,0.039-0.398,0.039c-0.42,0-0.833-0.114-1.197-0.33L3.226,18.64 c-0.741-0.44-1.201-1.261-1.201-2.142V7.503c0-0.881,0.46-1.702,1.201-2.142l7.577-4.498c0.363-0.216,0.777-0.33,1.197-0.33 c0.419,0,0.833,0.114,1.197,0.33l7.577,4.498c0.624,0.371,1.046,1.013,1.164,1.732C21.686,6.557,21.12,6.411,20.459,6.797z"/></g></g></svg>