<?xml version="1.0" encoding="UTF-8"?><svg xmlns="http://www.w3.org/2000/svg" width="480" height="200" viewBox="0 0 480 200" role="img"><defs><radialGradient id="mg0"><stop offset="0" stop-color="#5B6CFF" stop-opacity="0.22"/><stop offset="0.25" stop-color="#5B6CFF" stop-opacity="0.17"/><stop offset="0.5" stop-color="#5B6CFF" stop-opacity="0.09"/><stop offset="0.75" stop-color="#5B6CFF" stop-opacity="0.03"/><stop offset="1" stop-color="#5B6CFF" stop-opacity="0"/></radialGradient><linearGradient id="mw" x1="0" y1="0" x2="1" y2="0"><stop offset="0" stop-color="#5B6CFF"/><stop offset="0.5" stop-color="#A35BFF"/><stop offset="1" stop-color="#22C4EE"/></linearGradient><clipPath id="mc"><rect width="480" height="200" rx="14"/></clipPath><linearGradient id="pm" x1="0" y1="0" x2="1" y2="1"><stop offset="0" stop-color="#5B6CFF"/><stop offset="1" stop-color="#A35BFF"/></linearGradient><clipPath id="pt"><rect x="156" width="292" height="200"/></clipPath></defs><g clip-path="url(#mc)"><rect width="480" height="200" fill="#0A0C12"/><ellipse cx="96" cy="0" rx="264" ry="180" fill="url(#mg0)"/><path d="M0 140.0 Q120.0 110.0 240.0 140.0 T480.0 140.0 T720.0 140.0 T960.0 140.0 L960.0 200 L0 200Z" fill="url(#mw)" fill-opacity="0.22" transform="translate(0 0)"></path><path d="M0 154.0 Q60.0 130.0 120.0 154.0 T240.0 154.0 T360.0 154.0 T480.0 154.0 T600.0 154.0 T720.0 154.0 L720.0 200 L0 200Z" fill="url(#mw)" fill-opacity="0.42" transform="translate(-240 0)"></path><path d="M0 170.0 Q120.0 150.0 240.0 170.0 T480.0 170.0 T720.0 170.0 T960.0 170.0 L960.0 200 L0 200Z" fill="url(#mw)" fill-opacity="0.95" transform="translate(0 0)"></path></g><rect x="0.5" y="0.5" width="479" height="199" rx="13.5" fill="none" stroke="#F4F6FB" stroke-opacity="0.09"/><rect x="32" y="50" width="100" height="100" rx="24" fill="url(#pm)"/><rect x="32.5" y="50.5" width="99" height="99" rx="23.5" fill="none" stroke="#FFFFFF" stroke-opacity="0.22"/><text x="82" y="100" text-anchor="middle" dominant-baseline="central" font-family="Inter,ui-sans-serif,system-ui,-apple-system,BlinkMacSystemFont,Segoe UI,Roboto,Helvetica,Arial,sans-serif" font-weight="700" font-size="36" letter-spacing="-0.02em" fill="#0B0D14">KT</text><g clip-path="url(#pt)"><text x="156" y="84.1" dominant-baseline="central" font-family="Inter,ui-sans-serif,system-ui,-apple-system,BlinkMacSystemFont,Segoe UI,Roboto,Helvetica,Arial,sans-serif" font-size="32" font-weight="700" letter-spacing="-0.02em" fill="#F4F6FB">Kyle Tse</text><text x="156" y="115.9" dominant-baseline="central" font-family="Inter,ui-sans-serif,system-ui,-apple-system,BlinkMacSystemFont,Segoe UI,Roboto,Helvetica,Arial,sans-serif" font-size="15" font-weight="400" fill="#F4F6FB" fill-opacity="0.7">AI-native platforms</text></g></svg>