<?xml version="1.0" encoding="UTF-8"?><svg xmlns="http://www.w3.org/2000/svg" width="340" height="203" viewBox="0 0 340 203" role="img"><title>Most Used Languages</title><rect x="0.5" y="0.5" rx="8" width="339" height="202" fill="#1e1e2e" stroke="#e4e2e2"/><g font-family="Inter,ui-sans-serif,system-ui,-apple-system,BlinkMacSystemFont,Segoe UI,Roboto,Helvetica,Arial,sans-serif" font-feature-settings="'tnum'"><text x="25" y="35" fill="#94e2d5" font-size="18" font-weight="600">Most Used Languages</text><path d="M255 120L255 60A60 60 0 0 1 275.79 176.28Z" fill="#dea584"/><path d="M255 120L275.79 176.28A60 60 0 0 1 197.06 135.58Z" fill="#3178c6"/><path d="M255 120L197.06 135.58A60 60 0 0 1 223.8 68.75Z" fill="#3572a5"/><path d="M255 120L223.8 68.75A60 60 0 0 1 251.14 60.12Z" fill="#00add8"/><path d="M255 120L251.14 60.12A60 60 0 0 1 255 60Z" fill="#89e051"/><circle cx="30" cy="72" r="5" fill="#dea584"/><text x="41" y="76" fill="#cdd6f4" font-size="12">Rust <tspan fill-opacity="0.7">44.37%</tspan></text><circle cx="30" cy="96" r="5" fill="#3178c6"/><text x="41" y="100" fill="#cdd6f4" font-size="12">TypeScript <tspan fill-opacity="0.7">26.45%</tspan></text><circle cx="30" cy="120" r="5" fill="#3572a5"/><text x="41" y="124" fill="#cdd6f4" font-size="12">Python <tspan fill-opacity="0.7">20.48%</tspan></text><circle cx="30" cy="144" r="5" fill="#00add8"/><text x="41" y="148" fill="#cdd6f4" font-size="12">Go <tspan fill-opacity="0.7">7.68%</tspan></text><circle cx="30" cy="168" r="5" fill="#89e051"/><text x="41" y="172" fill="#cdd6f4" font-size="12">Shell <tspan fill-opacity="0.7">1.02%</tspan></text></g></svg>